<svg version="1.1" xmlns="http://www.w3.org/2000/svg" viewBox="-1042.8316100400812 -2322.482351393614 5328.757577999091 4111.350852468333"><desc>Created with Snap</desc><defs></defs><g><g transform="matrix(12.0031,0,0,12.0031,-819.0838,-2899.7636)">
<g id="gSkxyt533mur">
	<path d="M61.01423,300.22949c59.23515,70.46036,160.56436,82.36752,241.84523,41.02591
		c81.90601-41.65958,158.72986-208.10381,21.72983-214.46304c-52.95584-2.45808-89.79474,40.29303-135.24965,3.27516
		c-37.44801-30.49716-64.47668-74.02538-132.06207-48.85297C-21.33626,110.49453,1.72878,229.7093,61.01423,300.22949z" fill="#5ca4a9" style=""></path>
</g>


<desc>Created with Snap</desc><defs></defs></g><g><g transform="matrix(1.024,0,0,-1.024,0,0)"><path d="M582 223Q595 223 602 211Q610 199 610 178Q610 138 591 116Q548 63 498 29Q449 -5 386 -5Q333 -5 300 33Q243 -4 181 -5Q168 -198 122 -328Q76 -457 -13 -457Q-67 -457 -93 -418Q-119 -379 -119 -310Q-119 -212 -74 -82Q-29 49 65 206Q65 352 63 409Q62 438 86 455Q110 472 146 472Q167 472 176 463Q186 455 187 430Q187 405 188 393Q220 433 251 450Q282 468 317 468Q373 468 408 423Q444 378 444 305Q444 252 427 202Q410 152 380 111Q401 105 415 105Q448 105 478 129Q508 153 555 209Q567 223 582 223ZM186 91Q222 99 252 130Q283 162 301 208Q319 255 319 306Q319 336 307 351Q295 367 275 367Q239 367 188 291Q187 247 187 162Q187 116 186 91ZM-5 -359Q22 -359 40 -242Q58 -124 63 51Q20 -49 -5 -140Q-30 -231 -30 -293Q-30 -325 -23 -342Q-15 -359 -5 -359ZM908 223Q921 223 928 211Q936 199 936 178Q936 138 917 116Q874 63 823 29Q773 -5 709 -5Q621 -5 578 75Q536 155 536 282Q536 404 567 560Q599 716 660 828Q722 940 807 940Q855 940 882 895Q910 851 910 768Q910 649 844 492Q778 335 665 181Q672 140 688 122Q704 105 730 105Q771 105 802 128Q833 152 881 209Q893 223 908 223ZM785 841Q762 841 733 758Q704 675 682 552Q660 429 658 316Q729 433 771 550Q813 668 813 765Q813 841 785 841ZM978 -5Q916 -5 879 40Q842 85 842 158Q842 238 879 309Q916 381 977 424Q1039 468 1108 468Q1130 468 1137 459Q1145 451 1150 429Q1171 433 1194 433Q1243 433 1243 398Q1243 377 1228 298Q1205 183 1205 138Q1205 123 1212 114Q1220 105 1232 105Q1251 105 1278 129Q1305 154 1351 209Q1363 223 1378 223Q1391 223 1398 211Q1406 199 1406 178Q1406 138 1387 116Q1346 65 1300 30Q1254 -5 1211 -5Q1178 -5 1150 17Q1123 40 1109 79Q1057 -5 978 -5ZM1014 96Q1036 96 1056 122Q1076 148 1085 191L1122 375Q1080 374 1044 343Q1009 313 988 263Q967 213 967 157Q967 126 979 111Q992 96 1014 96ZM1837 221Q1850 221 1857 208Q1865 196 1865 177Q1865 154 1858 141Q1851 128 1836 118L1644 -11Q1606 -218 1544 -337Q1483 -455 1388 -455Q1337 -455 1305 -424Q1273 -392 1273 -341Q1273 -294 1294 -245Q1316 -196 1374 -133Q1433 -69 1540 13L1543 36Q1550 73 1559 142Q1539 70 1503 32Q1467 -5 1427 -5Q1382 -5 1353 36Q1325 78 1325 140Q1325 215 1335 277Q1345 340 1368 410Q1378 440 1396 453Q1414 466 1453 466Q1475 466 1483 459Q1492 452 1492 438Q1492 430 1481 384Q1471 347 1465 317Q1457 276 1451 238Q1445 201 1445 177Q1445 139 1466 139Q1481 139 1503 169Q1526 199 1551 260Q1577 321 1601 410Q1609 440 1625 453Q1642 466 1675 466Q1698 466 1707 460Q1716 454 1716 440Q1716 415 1690 268L1664 107Q1741 165 1814 213Q1827 221 1837 221ZM1399 -358Q1424 -358 1455 -300Q1486 -242 1517 -107Q1440 -172 1405 -226Q1371 -279 1371 -319Q1371 -336 1377 -347Q1384 -358 1399 -358ZM2140 -5Q2102 -5 2086 35Q2071 75 2071 163Q2071 293 2108 410Q2117 439 2137 452Q2158 466 2195 466Q2215 466 2223 461Q2231 456 2231 442Q2231 426 2216 370Q2206 330 2200 300Q2194 271 2190 227Q2217 305 2254 359Q2292 413 2331 439Q2371 466 2406 466Q2441 466 2455 450Q2470 434 2470 401Q2470 369 2451 285Q2443 249 2440 231Q2490 354 2551 410Q2612 466 2665 466Q2730 466 2730 401Q2730 362 2708 260Q2689 173 2689 145Q2689 105 2718 105Q2738 105 2765 129Q2793 154 2839 209Q2851 223 2866 223Q2879 223 2886 211Q2894 199 2894 178Q2894 138 2875 116Q2832 63 2782 29Q2733 -5 2670 -5Q2619 -5 2593 24Q2567 54 2567 110Q2567 138 2581 210Q2594 273 2594 297Q2594 313 2583 313Q2570 313 2546 279Q2522 246 2498 191Q2474 136 2459 75Q2448 27 2433 11Q2419 -5 2387 -5Q2354 -5 2337 26Q2321 58 2321 103Q2321 141 2331 213Q2339 277 2339 297Q2339 313 2328 313Q2313 313 2290 277Q2267 241 2245 185Q2224 129 2211 75Q2200 28 2185 11Q2171 -5 2140 -5ZM3259 223Q3272 223 3279 211Q3287 199 3287 178Q3287 138 3268 116Q3231 71 3163 33Q3096 -5 3019 -5Q2914 -5 2856 52Q2798 109 2798 208Q2798 277 2827 336Q2856 396 2907 431Q2959 466 3024 466Q3082 466 3117 431Q3152 397 3152 338Q3152 269 3102 219Q3053 170 2935 141Q2960 95 3030 95Q3075 95 3132 126Q3190 158 3232 209Q3244 223 3259 223ZM3007 368Q2970 368 2944 325Q2919 282 2919 221L2919 219Q2978 233 3012 261Q3046 289 3046 326Q3046 345 3035 356Q3025 368 3007 368Z" fill="#343333" style=""></path></g></g></g></svg>